<svg xmlns="http://www.w3.org/2000/svg" width="89.94" height="65.656" viewBox="0 0 89.94 65.656">
  <defs>
    <style>
      .cls-1 {
        fill: #77a4bd;
        fill-rule: evenodd;
      }
    </style>
  </defs>
  <path class="cls-1" d="M1379.45,888.76h-15.33a0.839,0.839,0,1,1,0-1.678h15.33a3.786,3.786,0,0,0,3.87-3.7V846.85a3.711,3.711,0,0,0-1.41-2.885l-23.25-18.385a4,4,0,0,0-4.86.006l-7.74,6.125a0.883,0.883,0,0,1-1.22-.122,0.824,0.824,0,0,1,.13-1.18l7.75-6.131a5.769,5.769,0,0,1,7.02-.006l23.27,18.4a5.353,5.353,0,0,1,2.04,4.178v36.537A5.5,5.5,0,0,1,1379.45,888.76Zm-42.03-25.868c-4.45,0-11.38-4.743-12.17-10.729-1.14-.267-1.85-1.268-1.96-2.821-0.16-1.039-.42-2.715.48-3.849a2.769,2.769,0,0,1,1.44-.929,12.185,12.185,0,0,1,24.33,0c2.42,0.689,2.16,3.276,2.01,4.723-0.27,1.979-1.2,2.667-2.04,2.873C1348.8,858.147,1341.9,862.892,1337.42,862.892Zm-11.37-12.344a0.864,0.864,0,0,1,.57.214,0.808,0.808,0,0,1,.29.591c0.23,5.251,6.71,9.861,10.51,9.861s10.27-4.6,10.42-9.85a0.858,0.858,0,0,1,.28-0.6,1.01,1.01,0,0,1,.64-0.217c0.34,0.023.87,0.058,1.07-1.371,0.22-2.211.08-2.949-1.22-3.085a0.848,0.848,0,0,1-.77-0.836,10.465,10.465,0,1,0-20.93,0,0.848,0.848,0,0,1-.77.836,1.31,1.31,0,0,0-1.01.428c-0.45.567-.25,1.815-0.13,2.642,0.11,1.438.69,1.406,0.99,1.386h0.06Zm0-5.292h0Zm14.9,43.5a0.853,0.853,0,0,1-.86-0.761l-1.98-20.324a0.864,0.864,0,0,1,1.72-.157l1.98,20.325a0.854,0.854,0,0,1-.78.914C1341,888.76,1340.97,888.76,1340.95,888.76Zm-7.15,0a0.713,0.713,0,0,1-.08,0,0.854,0.854,0,0,1-.78-0.914l1.98-20.325a0.857,0.857,0,0,1,.94-0.757,0.847,0.847,0,0,1,.78.914L1334.66,888A0.86,0.86,0,0,1,1333.8,888.76Zm21.45,0H1319.5a4.6,4.6,0,0,1-4.65-4.534V870.453a4.46,4.46,0,0,1,2.33-4,43.013,43.013,0,0,1,11.35-4.21,0.89,0.89,0,0,1,.9.344,9.648,9.648,0,0,0,15.89,0,0.863,0.863,0,0,1,.89-0.347,42.915,42.915,0,0,1,11.35,4.2,4.463,4.463,0,0,1,2.34,4.01v13.773A4.6,4.6,0,0,1,1355.25,888.76ZM1328.35,864a41.377,41.377,0,0,0-10.33,3.912,2.789,2.789,0,0,0-1.45,2.541v13.773a2.931,2.931,0,0,0,2.93,2.856h35.75a2.929,2.929,0,0,0,2.92-2.856V870.453a2.777,2.777,0,0,0-1.46-2.547A41.23,41.23,0,0,0,1346.39,864a11.409,11.409,0,0,1-8.97,4.436A11.545,11.545,0,0,1,1328.35,864Zm70.91,24.76h-10.34a0.839,0.839,0,1,1,0-1.678h10.34a3.8,3.8,0,0,0,3.79-3.7V846.85a3.69,3.69,0,0,0-1.42-2.885l-23.24-18.385a4,4,0,0,0-4.88.017l-3.07,2.5a0.874,0.874,0,0,1-1.21-.107,0.817,0.817,0,0,1,.11-1.183l3.1-2.52a5.8,5.8,0,0,1,7.03-.012l23.26,18.4a5.353,5.353,0,0,1,2.04,4.178v36.537A5.448,5.448,0,0,1,1399.26,888.76Z" transform="translate(-1314.84 -823.094)"/>
</svg>
