<svg xmlns="http://www.w3.org/2000/svg" width="89.5" height="66.03" viewBox="0 0 89.5 66.03">
  <defs>
    <style>
      .cls-1 {
        fill: #77a4bd;
        fill-rule: evenodd;
      }
    </style>
  </defs>
  <path class="cls-1" d="M863.674,1251.98H800.225a7.012,7.012,0,0,1-7-8.26l4.138-23.47a0.866,0.866,0,0,1,.98-0.69,0.856,0.856,0,0,1,.685.98l-4.14,23.48a5.316,5.316,0,0,0,5.335,6.27h63.449a5.175,5.175,0,0,0,4.079-1.89,5.017,5.017,0,0,0,1.173-4.38l-4.14-23.48a0.845,0.845,0,1,1,1.665-.29l4.139,23.48a6.641,6.641,0,0,1-1.552,5.77A6.829,6.829,0,0,1,863.674,1251.98Zm6.168-35.89H856.578a6.808,6.808,0,0,1-6.844-6.76v-6.5a3.463,3.463,0,0,0-3.378-3.46H817.545a3.463,3.463,0,0,0-3.462,3.46v6.5a6.809,6.809,0,0,1-6.845,6.76H794.057a6.666,6.666,0,0,1-5.3-2.51,6.745,6.745,0,0,1-1.445-5.67c3.411-16.22,26.153-21.97,44.593-21.97,19.325,0,41.187,5.77,44.591,21.95a6.412,6.412,0,0,1-1.358,5.69A6.659,6.659,0,0,1,869.842,1216.09Zm-52.3-18.41h28.811a5.179,5.179,0,0,1,5.069,5.15v6.5a5.121,5.121,0,0,0,5.153,5.07h13.264a5.04,5.04,0,0,0,4-1.89,4.752,4.752,0,0,0,1.011-4.26c-3.2-15.22-25.133-20.62-42.941-20.62s-39.736,5.4-42.936,20.61a5.189,5.189,0,0,0,5.086,6.16h13.181a5.179,5.179,0,0,0,5.154-5.07v-6.5A5.157,5.157,0,0,1,817.545,1197.68Zm14.362,45.94a15.96,15.96,0,1,1,15.969-15.96A15.982,15.982,0,0,1,831.907,1243.62Zm0-30.24a14.275,14.275,0,1,0,14.278,14.28A14.3,14.3,0,0,0,831.907,1213.38Z" transform="translate(-787.188 -1185.94)"/>
</svg>
