<svg xmlns="http://www.w3.org/2000/svg" width="69" height="66.031" viewBox="0 0 69 66.031">
  <defs>
    <style>
      .cls-1 {
        fill: #77a4bd;
        fill-rule: evenodd;
      }
    </style>
  </defs>
  <path class="cls-1" d="M589.3,888.963h-27.99a5.576,5.576,0,0,1-5.616-5.659V828.578a5.642,5.642,0,0,1,5.616-5.656H589.3a5.755,5.755,0,0,1,5.7,5.656V883.3A5.686,5.686,0,0,1,589.3,888.963Zm-27.99-64.353a3.946,3.946,0,0,0-3.913,3.968V883.3a3.9,3.9,0,0,0,3.913,3.972H589.3a3.989,3.989,0,0,0,4-3.972V828.578a4.037,4.037,0,0,0-4-3.968h-27.99Zm18.207,4.9h-8.337a0.844,0.844,0,1,1,0-1.687h8.337A0.844,0.844,0,1,1,579.515,829.506Zm-4.17,54.811a3.945,3.945,0,0,1-4-3.882,3.989,3.989,0,0,1,4-3.968A3.925,3.925,0,0,1,575.345,884.317Zm0-6.162a2.238,2.238,0,1,0,0,4.474,2.179,2.179,0,0,0,2.212-2.194A2.225,2.225,0,0,0,575.345,878.155Zm-20.588,10.808h-3.318a5.686,5.686,0,0,1-5.7-5.659V828.578a5.755,5.755,0,0,1,5.7-5.656h3.318a0.844,0.844,0,1,1,0,1.688h-3.318a4.037,4.037,0,0,0-4,3.968V883.3a3.989,3.989,0,0,0,4,3.972h3.318A0.844,0.844,0,1,1,554.757,888.963Zm-9.869,0H541.57a5.685,5.685,0,0,1-5.7-5.659V828.578a5.755,5.755,0,0,1,5.7-5.656h3.318a0.844,0.844,0,1,1,0,1.688H541.57a4.036,4.036,0,0,0-4,3.968V883.3a3.989,3.989,0,0,0,4,3.972h3.318A0.844,0.844,0,1,1,544.888,888.963Zm-9.868,0H531.7A5.686,5.686,0,0,1,526,883.3V828.578a5.755,5.755,0,0,1,5.7-5.656h3.318a0.844,0.844,0,1,1,0,1.688H531.7a4.037,4.037,0,0,0-4,3.968V883.3a3.989,3.989,0,0,0,4,3.972h3.318A0.844,0.844,0,1,1,535.02,888.963Z" transform="translate(-526 -822.938)"/>
</svg>
