<svg 
 xmlns="http://www.w3.org/2000/svg"
 xmlns:xlink="http://www.w3.org/1999/xlink"
 width="66px" height="67px">
<path fill-rule="evenodd"  fill="rgb(119, 164, 189)"
 d="M62.473,66.979 L11.286,66.979 C9.308,66.979 7.698,65.428 7.698,63.519 L7.698,28.386 C7.698,26.189 5.780,24.330 3.510,24.330 C1.579,24.330 0.007,22.776 0.007,20.868 L0.007,4.400 C0.007,2.491 1.579,0.937 3.510,0.937 L48.545,0.937 L56.235,0.937 C61.606,0.937 65.977,5.293 65.977,10.650 L65.977,63.519 C65.977,65.428 64.405,66.979 62.473,66.979 ZM50.338,4.400 C50.338,3.422 49.534,2.625 48.545,2.625 L3.510,2.625 C2.538,2.625 1.717,3.437 1.717,4.400 L1.717,20.868 C1.717,21.831 2.538,22.643 3.510,22.643 L48.545,22.643 C49.534,22.643 50.338,21.846 50.338,20.868 L50.338,4.400 ZM64.267,10.650 C64.267,6.224 60.664,2.625 56.235,2.625 L51.537,2.625 C51.854,3.146 52.048,3.749 52.048,4.400 L52.048,20.868 C52.048,22.776 50.476,24.330 48.545,24.330 L7.682,24.330 C8.747,25.370 9.408,26.804 9.408,28.386 L9.408,63.519 C9.408,64.511 10.232,65.291 11.286,65.291 L52.731,65.291 L52.731,28.386 C52.731,27.921 53.114,27.542 53.586,27.542 C54.059,27.542 54.442,27.921 54.442,28.386 L54.442,65.291 L62.473,65.291 C63.446,65.291 64.267,64.479 64.267,63.519 L64.267,10.650 ZM38.631,53.045 L37.948,53.045 C36.253,53.045 34.808,52.021 34.219,50.583 C33.013,52.121 31.161,53.129 29.060,53.129 C25.448,53.129 22.395,50.112 22.395,46.542 L22.395,42.658 C22.395,39.088 25.448,36.070 29.060,36.070 C30.998,36.070 32.726,36.929 33.931,38.267 L33.931,36.745 C33.931,36.280 34.314,35.902 34.786,35.902 C35.259,35.902 35.642,36.280 35.642,36.745 L35.642,42.658 L35.642,46.542 L35.642,49.160 C35.642,50.350 36.697,51.357 37.948,51.357 L38.631,51.357 C39.876,51.357 40.852,50.391 40.852,49.160 L40.852,41.476 C40.852,36.073 36.407,31.677 30.942,31.677 L27.695,31.677 C22.229,31.677 17.782,36.073 17.782,41.476 L17.782,47.642 C17.782,53.042 22.229,57.438 27.695,57.438 L34.957,57.438 C35.430,57.438 35.812,57.816 35.812,58.282 C35.812,58.747 35.430,59.125 34.957,59.125 L27.695,59.125 C21.286,59.125 16.072,53.976 16.072,47.642 L16.072,41.476 C16.072,35.142 21.286,29.989 27.695,29.989 L30.942,29.989 C37.349,29.989 42.563,35.142 42.563,41.476 L42.563,49.160 C42.563,51.302 40.799,53.045 38.631,53.045 ZM33.931,42.658 C33.931,39.957 31.747,37.758 29.060,37.758 C26.374,37.758 24.106,40.001 24.106,42.658 L24.106,46.542 C24.106,49.198 26.374,51.442 29.060,51.442 C31.747,51.442 33.931,49.242 33.931,46.542 L33.931,42.658 ZM44.784,13.437 L7.271,13.437 C6.798,13.437 6.416,13.059 6.416,12.593 C6.416,12.128 6.798,11.750 7.271,11.750 L44.784,11.750 C45.257,11.750 45.639,12.128 45.639,12.593 C45.639,13.059 45.257,13.437 44.784,13.437 Z"/>
</svg>