<svg xmlns="http://www.w3.org/2000/svg" width="119.972" height="66.031" viewBox="0 0 119.972 66.031">
  <defs>
    <style>
      .cls-1 {
        fill: #77a4bd;
        fill-rule: evenodd;
      }
    </style>
  </defs>
  <path class="cls-1" d="M959.965,858.14c-5.24,0-13.384-5.636-14.175-12.73-0.984-.206-2.1-0.969-2.368-3.308-0.168-1.268-.424-3.206.621-4.492a3.128,3.128,0,0,1,1.707-1.045,14.076,14.076,0,0,1,14.129-13.643h0.086a14.076,14.076,0,0,1,14.129,13.643,3.131,3.131,0,0,1,1.708,1.045c1.044,1.286.788,3.224,0.619,4.507-0.263,2.327-1.383,3.09-2.366,3.293C973.266,852.5,965.173,858.14,959.965,858.14ZM946.59,843.784a0.862,0.862,0,0,1,.578.221,0.836,0.836,0,0,1,.279.594c0.236,6.427,7.857,11.853,12.518,11.853,4.519,0,12.2-5.54,12.432-11.853a0.837,0.837,0,0,1,.28-0.594,0.911,0.911,0,0,1,.624-0.221c0.395,0.038,1.2.061,1.417-1.868,0.134-1.016.333-2.526-.254-3.25a1.778,1.778,0,0,0-1.288-.547,0.848,0.848,0,0,1-.78-0.841,12.418,12.418,0,0,0-12.431-12.668h-0.086a12.418,12.418,0,0,0-12.431,12.668,0.848,0.848,0,0,1-.779.841,1.774,1.774,0,0,0-1.288.547c-0.588.724-.389,2.234-0.256,3.235,0.22,1.95,1.032,1.9,1.418,1.883h0.047Zm0-6.506h0Zm17.49,51.685a0.849,0.849,0,0,1-.852-0.765l-2.316-24.236a0.847,0.847,0,0,1,.774-0.919,0.861,0.861,0,0,1,.933.761l2.316,24.237a0.85,0.85,0,0,1-.774.92C964.134,888.963,964.108,888.963,964.08,888.963Zm-8.315,0c-0.028,0-.055,0-0.082,0a0.848,0.848,0,0,1-.773-0.92l2.315-24.237a0.876,0.876,0,0,1,.934-0.761,0.847,0.847,0,0,1,.773.919L956.617,888.2A0.849,0.849,0,0,1,955.765,888.963Zm25.206,0h-42.1a5.366,5.366,0,0,1-5.4-5.318V867.261a5.321,5.321,0,0,1,2.739-4.612,49.777,49.777,0,0,1,13.37-5,0.877,0.877,0,0,1,.9.369,11.382,11.382,0,0,0,18.875,0,0.875,0.875,0,0,1,.9-0.369,49.783,49.783,0,0,1,13.351,4.987,5.325,5.325,0,0,1,2.757,4.623v16.384A5.366,5.366,0,0,1,980.971,888.963ZM949.38,859.429a47.99,47.99,0,0,0-12.32,4.687,3.6,3.6,0,0,0-1.873,3.145v16.384a3.709,3.709,0,0,0,3.686,3.631h42.1a3.709,3.709,0,0,0,3.686-3.631V867.261a3.6,3.6,0,0,0-1.89-3.157,48.014,48.014,0,0,0-12.3-4.675A13.137,13.137,0,0,1,949.38,859.429Zm-26.112,2.426c-4.625,0-11.756-4.955-12.463-11.21-0.938-.207-1.851-0.952-2.1-2.957l-0.025-.241c-0.15-1.44-.419-4.018,2.007-4.769a12.6,12.6,0,0,1,25.174,0c2.5,0.765,2.229,3.434,2.077,4.923-0.262,2.072-1.176,2.831-2.114,3.044C935.107,856.9,927.927,861.855,923.268,861.855Zm-11.659-12.837a0.871,0.871,0,0,1,.579.221,0.837,0.837,0,0,1,.277.6c0.153,5.5,6.843,10.329,10.8,10.329,3.994,0,10.736-4.827,10.891-10.329a0.838,0.838,0,0,1,.278-0.6,0.981,0.981,0,0,1,.632-0.221c0.384,0.023.951,0.061,1.153-1.539,0.231-2.272.064-3.1-1.323-3.282a0.85,0.85,0,0,1-.741-0.838,10.889,10.889,0,1,0-21.777,0,0.85,0.85,0,0,1-.742.838c-1.332.18-1.482,0.925-1.258,3.079l0.024,0.224c0.2,1.582.774,1.544,1.15,1.518h0.054Zm-0.086-5.659h0Zm20.749,45.6H904.835a4.856,4.856,0,0,1-4.888-4.812V869.8a4.6,4.6,0,0,1,2.512-4.122,41.8,41.8,0,0,1,11.7-4.472,0.861,0.861,0,0,1,.912.363,9.914,9.914,0,0,0,8.2,4.432,10.094,10.094,0,0,0,8.293-4.446,0.858,0.858,0,0,1,1.191-.224,0.834,0.834,0,0,1,.23,1.172,11.819,11.819,0,0,1-9.714,5.185,11.659,11.659,0,0,1-9.289-4.705,40.048,40.048,0,0,0-10.684,4.167,2.952,2.952,0,0,0-1.632,2.65v14.356a3.152,3.152,0,0,0,3.172,3.125h27.437A0.844,0.844,0,1,1,932.272,888.963Zm64.3-27.108c-4.658,0-11.839-4.955-12.549-11.21-0.938-.207-1.852-0.952-2.107-2.957-0.159-1.57-.431-4.245,2.07-5.01a12.6,12.6,0,0,1,25.17,0c2.43,0.751,2.16,3.332,2.01,4.772l-0.02.218c-0.26,2.019-1.17,2.767-2.11,2.977C1008.33,856.9,1001.2,861.855,996.576,861.855ZM984.83,849.018a0.871,0.871,0,0,1,.579.221,0.838,0.838,0,0,1,.278.6c0.153,5.5,6.895,10.329,10.889,10.329,3.964,0,10.654-4.827,10.8-10.329a0.86,0.86,0,0,1,.28-0.6,1,1,0,0,1,.63-0.221c0.38,0.023.95,0.061,1.15-1.539l0.02-.2c0.23-2.151.08-2.9-1.25-3.079a0.854,0.854,0,0,1-.75-0.838,10.886,10.886,0,1,0-21.772,0,0.85,0.85,0,0,1-.741.838c-1.389.186-1.555,1.01-1.329,3.236,0.206,1.643.778,1.614,1.159,1.585h0.053Zm0-5.659h0Zm30.18,45.6H987.573a0.844,0.844,0,1,1,0-1.687h27.437a3.15,3.15,0,0,0,3.17-3.125V869.8a2.936,2.936,0,0,0-1.6-2.633,40.172,40.172,0,0,0-10.71-4.184,11.669,11.669,0,0,1-9.294,4.705,11.824,11.824,0,0,1-9.714-5.185,0.836,0.836,0,0,1,.231-1.172,0.857,0.857,0,0,1,1.19.224A10.1,10.1,0,0,0,996.576,866a9.9,9.9,0,0,0,8.194-4.432,0.892,0.892,0,0,1,.92-0.363,41.839,41.839,0,0,1,11.72,4.489,4.566,4.566,0,0,1,2.49,4.1v14.356A4.861,4.861,0,0,1,1015.01,888.963Z" transform="translate(-899.938 -822.938)"/>
</svg>
