<svg xmlns="http://www.w3.org/2000/svg" width="14" height="16" viewBox="0 0 14 16">
  <defs>
    <style>
      .cls-1 {
        fill: #cdcdcd;
        fill-rule: evenodd;
      }
    </style>
  </defs>
  <path id="Rectangle_15_copy_2" data-name="Rectangle 15 copy 2" class="cls-1" d="M420,532h10a2,2,0,0,1,2,2v2H418v-2A2,2,0,0,1,420,532Zm1-3a1,1,0,0,1,1,1v2a1,1,0,0,1-2,0v-2A1,1,0,0,1,421,529Zm4,0a1,1,0,0,1,1,1v2a1,1,0,0,1-2,0v-2A1,1,0,0,1,425,529Zm4,0a1,1,0,0,1,1,1v2a1,1,0,0,1-2,0v-2A1,1,0,0,1,429,529Zm1,16H420a2,2,0,0,1-2-2v-8h2v7a1,1,0,0,0,1,1h8a1,1,0,0,0,1-1v-7h2v8A2,2,0,0,1,430,545Z" transform="translate(-418 -529)"/>
</svg>
