<svg 
 xmlns="http://www.w3.org/2000/svg"
 xmlns:xlink="http://www.w3.org/1999/xlink"
 width="54px" height="35px">
<path fill-rule="evenodd"  fill="rgb(119, 164, 189)"
 d="M53.889,12.116 L53.746,12.725 C53.741,12.882 53.706,13.031 53.640,13.173 L49.365,31.362 C49.357,31.511 49.322,31.652 49.258,31.788 C48.993,32.875 48.341,33.798 47.405,34.381 C46.747,34.791 46.004,35.002 45.245,35.002 C44.925,35.002 44.602,34.964 44.281,34.888 L16.244,28.275 C15.130,28.021 14.184,27.354 13.590,26.398 C13.006,25.460 12.827,24.349 13.084,23.269 L17.455,4.598 C17.464,4.488 17.488,4.385 17.529,4.283 L17.691,3.588 C18.223,1.353 20.466,-0.020 22.687,0.498 L50.803,7.112 C51.885,7.370 52.801,8.031 53.383,8.974 C53.966,9.918 54.146,11.034 53.889,12.116 ZM19.094,7.709 L16.013,20.870 L22.200,17.021 C22.737,16.681 23.450,16.851 23.787,17.392 C24.122,17.934 23.957,18.645 23.417,18.981 L15.318,24.020 C15.270,24.427 15.329,24.832 15.545,25.180 C15.813,25.607 16.245,25.909 16.764,26.027 L44.813,32.643 C45.289,32.759 45.775,32.681 46.188,32.422 C46.552,32.195 46.798,31.830 46.944,31.410 L42.109,23.607 C41.773,23.065 41.940,22.354 42.481,22.019 C43.021,21.682 43.732,21.849 44.068,22.391 L47.720,28.286 L50.801,15.178 L37.242,23.595 C36.075,24.309 34.796,24.650 33.532,24.650 C31.184,24.650 28.899,23.471 27.522,21.313 L19.094,7.709 ZM51.422,10.186 C51.163,9.766 50.755,9.472 50.272,9.357 L22.160,2.744 C22.159,2.744 22.157,2.743 22.156,2.743 C22.014,2.710 21.870,2.693 21.727,2.693 C21.389,2.693 21.058,2.785 20.763,2.968 C20.343,3.228 20.049,3.636 19.934,4.119 L19.838,4.533 L29.472,20.084 C30.901,22.321 33.785,23.007 36.034,21.631 L51.548,11.999 L51.646,11.585 C51.761,11.101 51.682,10.606 51.422,10.186 ZM11.516,7.004 L5.831,7.004 C5.195,7.004 4.679,6.487 4.679,5.850 C4.679,5.213 5.195,4.697 5.831,4.697 L11.516,4.697 C12.152,4.697 12.668,5.213 12.668,5.850 C12.668,6.487 12.152,7.004 11.516,7.004 ZM11.516,14.847 C11.516,15.484 11.000,16.001 10.363,16.001 L1.146,16.001 C0.509,16.001 -0.007,15.484 -0.007,14.847 C-0.007,14.210 0.509,13.694 1.146,13.694 L10.363,13.694 C11.000,13.694 11.516,14.210 11.516,14.847 ZM4.602,22.692 L9.134,22.692 C9.771,22.692 10.287,23.208 10.287,23.845 C10.287,24.483 9.771,24.999 9.134,24.999 L4.602,24.999 C3.965,24.999 3.449,24.483 3.449,23.845 C3.449,23.208 3.965,22.692 4.602,22.692 ZM6.445,31.689 L20.580,31.689 C21.217,31.689 21.733,32.205 21.733,32.842 C21.733,33.479 21.217,33.996 20.580,33.996 L6.445,33.996 C5.809,33.996 5.293,33.479 5.293,32.842 C5.293,32.205 5.809,31.689 6.445,31.689 Z"/>
</svg>