<svg 
 xmlns="http://www.w3.org/2000/svg"
 xmlns:xlink="http://www.w3.org/1999/xlink"
 width="40px" height="43px">
<path fill-rule="evenodd"  fill="rgb(119, 164, 189)"
 d="M35.459,26.209 L32.814,30.741 C28.143,38.837 22.600,43.000 16.590,43.000 C15.120,43.000 13.622,42.751 12.101,42.250 C10.928,41.857 10.068,41.070 9.540,39.908 C9.088,38.575 9.205,37.331 9.828,36.296 L13.888,29.229 C14.450,28.260 15.399,27.544 16.496,27.266 C17.553,27.000 18.626,27.151 19.520,27.691 L22.374,29.342 C22.600,29.481 22.856,29.512 23.097,29.441 C23.244,29.399 23.512,29.285 23.661,28.985 L29.351,19.199 C29.629,18.713 29.469,18.092 28.981,17.791 L26.206,16.143 C25.312,15.674 24.595,14.785 24.291,13.732 C23.981,12.655 24.120,11.491 24.673,10.534 L28.744,3.451 C29.550,2.296 30.510,1.657 31.652,1.467 C32.595,1.323 33.488,1.484 34.285,1.928 C34.339,1.950 34.396,1.954 34.448,1.985 C34.980,2.300 35.423,2.710 35.779,3.178 C41.106,8.561 41.013,16.495 35.459,26.209 ZM19.329,31.075 C19.159,30.435 18.742,29.902 18.158,29.572 C18.133,29.558 18.119,29.533 18.096,29.518 C17.912,29.448 17.720,29.399 17.515,29.399 C17.363,29.399 17.209,29.419 17.053,29.458 C16.544,29.588 16.105,29.915 15.849,30.359 L11.777,37.442 C11.412,38.049 11.505,38.667 11.643,39.083 C11.752,39.313 11.901,39.514 12.088,39.683 C12.155,39.708 12.226,39.717 12.289,39.756 C12.854,40.099 13.510,40.199 14.133,40.038 C14.763,39.875 15.290,39.464 15.619,38.885 L19.091,32.848 C19.411,32.309 19.492,31.683 19.329,31.075 ZM34.079,4.692 C33.909,4.522 33.758,4.346 33.573,4.181 C33.103,3.763 32.605,3.613 32.009,3.701 C31.488,3.787 31.052,4.094 30.651,4.664 L26.633,11.664 C26.385,12.093 26.324,12.617 26.464,13.105 C26.601,13.576 26.902,13.955 27.310,14.169 L27.336,14.185 C27.338,14.185 27.340,14.185 27.341,14.186 C27.929,14.521 28.603,14.611 29.238,14.452 C29.864,14.291 30.384,13.894 30.702,13.332 L34.174,7.296 C34.649,6.457 34.576,5.449 34.079,4.692 ZM36.140,8.416 L32.668,14.452 C32.200,15.279 31.499,15.880 30.697,16.273 C31.806,17.309 32.088,18.971 31.311,20.329 L25.651,30.060 C25.291,30.782 24.574,31.372 23.717,31.616 C23.026,31.812 22.303,31.760 21.661,31.498 C21.699,32.367 21.496,33.226 21.046,33.986 L17.584,40.005 C17.444,40.253 17.277,40.480 17.099,40.695 C23.244,40.352 27.877,34.771 30.858,29.606 L33.500,25.078 C36.408,19.991 38.877,13.331 36.366,7.903 C36.294,8.075 36.234,8.250 36.140,8.416 ZM24.221,2.497 C20.738,2.035 17.598,2.233 14.603,3.408 C14.468,3.463 14.327,3.487 14.190,3.487 C13.739,3.487 13.312,3.216 13.138,2.771 C12.909,2.189 13.195,1.532 13.775,1.305 C17.161,-0.025 20.950,-0.219 24.520,0.256 C25.139,0.338 25.575,0.906 25.491,1.526 C25.410,2.145 24.851,2.577 24.221,2.497 ZM11.182,5.040 C5.935,8.419 2.802,14.150 2.802,20.372 C2.802,23.893 3.913,27.498 5.930,30.522 C6.277,31.042 6.137,31.744 5.617,32.090 C5.425,32.218 5.207,32.281 4.991,32.281 C4.625,32.281 4.266,32.104 4.049,31.776 C1.786,28.385 0.539,24.336 0.539,20.372 C0.539,13.377 4.061,6.935 9.959,3.140 C10.483,2.801 11.185,2.954 11.521,3.479 C11.861,4.003 11.708,4.703 11.182,5.040 ZM10.269,29.794 C9.935,29.794 9.605,29.647 9.382,29.366 C7.455,26.938 6.351,23.968 6.272,21.005 C6.255,20.381 6.747,19.861 7.371,19.844 C7.381,19.843 7.393,19.843 7.402,19.843 C8.014,19.843 8.517,20.330 8.532,20.943 C8.600,23.422 9.531,25.914 11.154,27.961 C11.542,28.450 11.460,29.162 10.971,29.549 C10.763,29.714 10.515,29.794 10.269,29.794 ZM7.631,18.638 C7.551,18.638 7.471,18.631 7.390,18.612 C6.780,18.481 6.392,17.879 6.524,17.269 C7.818,11.284 12.802,6.658 18.929,5.760 C19.542,5.673 20.120,6.099 20.212,6.716 C20.302,7.332 19.874,7.907 19.256,7.998 C14.058,8.760 9.830,12.678 8.735,17.746 C8.621,18.276 8.152,18.638 7.631,18.638 ZM12.766,22.923 C12.711,22.931 12.658,22.935 12.605,22.935 C12.050,22.935 11.567,22.527 11.486,21.964 C11.402,21.375 11.399,20.874 11.399,20.372 C11.399,16.105 14.118,12.428 18.165,11.222 C18.765,11.049 19.395,11.384 19.573,11.983 C19.751,12.582 19.411,13.211 18.812,13.390 C15.732,14.307 13.662,17.113 13.662,20.372 C13.662,20.773 13.660,21.175 13.726,21.644 C13.814,22.262 13.384,22.835 12.766,22.923 Z"/>
</svg>