<svg 
 xmlns="http://www.w3.org/2000/svg"
 xmlns:xlink="http://www.w3.org/1999/xlink"
 width="44px" height="41px">
<path fill-rule="evenodd"  fill="rgb(119, 164, 189)"
 d="M34.111,31.487 C29.036,31.487 24.907,27.494 24.907,22.587 C24.907,18.158 28.331,14.490 32.773,13.866 L32.773,11.698 C29.793,13.922 24.243,15.360 17.590,15.360 C10.975,15.360 5.456,13.925 2.486,11.706 L2.486,16.729 C2.486,19.170 8.946,21.901 17.590,21.901 C19.416,21.901 20.925,21.807 22.204,21.611 C22.849,21.506 23.453,21.937 23.554,22.560 C23.656,23.183 23.217,23.767 22.573,23.865 C21.171,24.079 19.540,24.184 17.590,24.184 C11.778,24.184 5.716,22.952 2.486,20.614 L2.486,25.021 C2.486,27.463 8.946,30.193 17.590,30.193 C20.496,30.193 23.138,29.947 25.442,29.460 C26.082,29.336 26.708,29.715 26.847,30.331 C26.985,30.947 26.583,31.555 25.946,31.690 C23.477,32.212 20.665,32.476 17.590,32.476 C11.778,32.476 5.716,31.244 2.486,28.906 L2.486,33.314 C2.486,35.792 8.946,38.562 17.590,38.562 C26.281,38.562 32.773,35.792 32.773,33.314 C32.773,32.684 33.301,32.173 33.953,32.173 C34.605,32.173 35.134,32.684 35.134,33.314 C35.134,37.607 27.591,40.845 17.590,40.845 C7.634,40.845 0.125,37.607 0.125,33.314 L0.125,7.828 C0.125,3.161 9.006,0.372 17.590,0.372 C26.214,0.372 35.134,3.161 35.134,7.828 L35.134,13.820 C39.730,14.310 43.316,18.053 43.316,22.587 C43.316,27.494 39.187,31.487 34.111,31.487 ZM17.590,2.654 C8.232,2.654 2.486,5.667 2.486,7.828 C2.486,10.306 8.946,13.077 17.590,13.077 C26.281,13.077 32.773,10.306 32.773,7.828 C32.773,5.667 26.998,2.654 17.590,2.654 ZM34.111,16.045 C30.337,16.045 27.267,18.979 27.267,22.587 C27.267,26.236 30.337,29.204 34.111,29.204 C37.885,29.204 40.955,26.236 40.955,22.587 C40.955,18.979 37.885,16.045 34.111,16.045 ZM39.037,21.493 L34.081,26.284 C33.850,26.507 33.548,26.619 33.246,26.619 C32.949,26.619 32.654,26.511 32.425,26.296 L29.828,23.862 C29.361,23.422 29.349,22.700 29.803,22.249 C30.258,21.799 31.005,21.787 31.471,22.223 L33.234,23.876 L37.367,19.878 C37.828,19.432 38.576,19.432 39.037,19.878 C39.497,20.323 39.497,21.047 39.037,21.493 Z"/>
</svg>