<svg xmlns="http://www.w3.org/2000/svg" width="15.874" height="15.874" viewBox="0 0 15.874 15.874">
  <defs>
    <style>
      .cls-1 {
        fill: #d6d6d6;
        fill-rule: evenodd;
      }
    </style>
  </defs>
  <path id="Ellipse_1_copy_4" data-name="Ellipse 1 copy 4" class="cls-1" d="M925.763,632.37c0.02,0.018.046,0.024,0.065,0.044l2.95,2.949a1,1,0,0,1-1.414,1.414l-2.95-2.949c-0.019-.02-0.026-0.045-0.043-0.066A7,7,0,1,1,925.763,632.37Zm-9.293-7.9a5.235,5.235,0,1,0,7.4,0A5.235,5.235,0,0,0,916.47,624.469Zm1.58,1.58a3,3,0,0,0,0,4.243l-0.707.707a4,4,0,0,1,0-5.657Z" transform="translate(-913.188 -621.188)"/>
</svg>
