<svg xmlns="http://www.w3.org/2000/svg" width="15" height="22" viewBox="0 0 15 22">
  <defs>
    <style>
      .cls-1 {
        fill: none;
        stroke: #fff;
        stroke-width: 1px;
        fill-rule: evenodd;
      }
    </style>
  </defs>
  <path id="Shape_8_copy" data-name="Shape 8 copy" class="cls-1" d="M979.768,29.966L981.348,33a1.736,1.736,0,0,1-.762,2.358l-1.518.761a0.884,0.884,0,0,0-.406,1.179l3.432,6.6a0.917,0.917,0,0,0,1.221.388l1.519-.761a1.8,1.8,0,0,1,2.393.778l1.57,3.02a1.683,1.683,0,0,1,.046,1.507,1.759,1.759,0,0,1-1.151.994c-4.2,1.117-8.247-3.421-10.444-7.646-2.3-4.427-3.561-10.111-.187-12.784a1.71,1.71,0,0,1,1.492-.355A1.738,1.738,0,0,1,979.768,29.966Z" transform="translate(-974.5 -28.5)"/>
</svg>
