<svg 
 xmlns="http://www.w3.org/2000/svg"
 xmlns:xlink="http://www.w3.org/1999/xlink"
 width="30px" height="30px">
<path fill-rule="evenodd"  fill="#071767"
 d="M15.000,30.000 C6.716,30.000 -0.000,23.284 -0.000,15.000 C-0.000,6.716 6.716,-0.000 15.000,-0.000 C23.284,-0.000 30.000,6.716 30.000,15.000 C30.000,23.284 23.284,30.000 15.000,30.000 ZM15.000,2.000 C7.820,2.000 2.000,7.820 2.000,15.000 C2.000,22.179 7.820,28.000 15.000,28.000 C22.180,28.000 28.000,22.179 28.000,15.000 C28.000,7.820 22.180,2.000 15.000,2.000 ZM21.364,22.778 L18.414,19.828 C18.395,19.809 18.388,19.783 18.371,19.763 C15.628,21.827 11.719,21.618 9.222,19.121 C6.488,16.387 6.488,11.955 9.222,9.221 C11.955,6.488 16.388,6.488 19.121,9.221 C21.618,11.718 21.827,15.628 19.763,18.371 C19.783,18.388 19.809,18.395 19.828,18.414 L22.778,21.364 C23.169,21.754 23.169,22.387 22.778,22.778 C22.388,23.168 21.754,23.168 21.364,22.778 ZM17.873,10.470 C15.829,8.425 12.514,8.425 10.470,10.470 C8.425,12.514 8.425,15.829 10.470,17.873 C12.514,19.917 15.829,19.917 17.873,17.873 C19.918,15.829 19.918,12.514 17.873,10.470 ZM11.343,17.000 C9.781,15.437 9.781,12.905 11.343,11.343 L12.050,12.050 C10.879,13.222 10.879,15.121 12.050,16.293 L11.343,17.000 Z"/>
</svg>