<svg 
 xmlns="http://www.w3.org/2000/svg"
 xmlns:xlink="http://www.w3.org/1999/xlink"
 width="399px" height="255px">
<path fill-rule="evenodd"  fill="rgb(246, 246, 247)"
 d="M397.183,86.976 L396.276,90.828 C396.350,92.408 395.980,93.984 395.208,95.365 L364.077,227.626 C364.121,229.167 363.749,230.697 362.990,232.040 C360.943,239.750 356.214,246.285 349.513,250.451 C344.678,253.465 339.211,255.014 333.637,255.014 C331.282,255.014 328.909,254.739 326.544,254.177 L120.421,205.626 C112.230,203.757 105.275,198.865 100.908,191.844 C96.616,184.957 95.303,176.795 97.190,168.871 L129.156,32.501 C129.157,31.197 129.459,29.910 130.037,28.741 L131.064,24.363 C134.975,7.955 151.466,-2.131 167.789,1.672 L374.496,50.233 C382.453,52.129 389.186,56.984 393.465,63.908 C397.747,70.842 399.070,79.031 397.183,86.976 ZM141.376,54.623 L118.724,151.254 L164.209,122.991 C168.157,120.495 173.402,121.740 175.882,125.716 C178.345,129.694 177.127,134.918 173.158,137.386 L113.390,174.524 C113.075,177.465 113.719,180.380 115.285,182.895 C117.251,186.036 120.431,188.254 124.245,189.121 L330.455,237.692 C333.958,238.546 337.528,237.972 340.564,236.076 C343.209,234.423 345.187,231.901 346.267,228.872 L310.582,171.351 C308.111,167.373 309.336,162.150 313.315,159.689 C317.284,157.218 322.508,158.444 324.978,162.422 L351.830,205.704 L374.482,109.461 L274.800,171.262 C266.220,176.505 256.811,179.006 247.521,179.006 C230.263,179.006 213.464,170.348 203.337,154.505 L141.376,54.623 ZM379.048,72.808 C377.142,69.723 374.145,67.564 370.595,66.720 L163.918,18.169 C163.908,18.169 163.898,18.159 163.888,18.159 C162.846,17.914 161.787,17.788 160.737,17.788 C158.246,17.788 155.813,18.468 153.643,19.810 C150.560,21.716 148.400,24.714 147.555,28.262 L146.843,31.298 L217.676,145.481 C228.181,161.907 249.380,166.945 265.918,156.839 L379.975,86.123 L380.692,83.077 C381.539,79.527 380.955,75.890 379.048,72.808 ZM85.663,49.445 L43.871,49.445 C39.191,49.445 35.397,45.651 35.397,40.974 C35.397,36.295 39.191,32.503 43.871,32.503 L85.663,32.503 C90.342,32.503 94.136,36.295 94.136,40.974 C94.136,45.651 90.342,49.445 85.663,49.445 ZM85.663,107.033 C85.663,111.710 81.869,115.504 77.189,115.504 L9.423,115.504 C4.743,115.504 0.949,111.710 0.949,107.033 C0.949,102.354 4.743,98.561 9.423,98.561 L77.189,98.561 C81.869,98.561 85.663,102.354 85.663,107.033 ZM34.832,164.630 L68.152,164.630 C72.831,164.630 76.625,168.423 76.625,173.101 C76.625,177.778 72.831,181.573 68.152,181.573 L34.832,181.573 C30.154,181.573 26.360,177.778 26.360,173.101 C26.360,168.423 30.154,164.630 34.832,164.630 ZM48.383,230.689 L152.300,230.689 C156.981,230.689 160.775,234.481 160.775,239.160 C160.775,243.837 156.981,247.631 152.300,247.631 L48.383,247.631 C43.705,247.631 39.910,243.837 39.910,239.160 C39.910,234.481 43.705,230.689 48.383,230.689 Z"/>
</svg>